<mxfile host="app.diagrams.net" modified="2020-04-05T07:09:28.275Z" agent="5.0 (Windows NT 10.0; Win64; x64) AppleWebKit/537.36 (KHTML, like Gecko) Chrome/80.0.3987.149 Safari/537.36" etag="B8AwgXeJSXGYQ77QNBwn" version="12.9.7" type="github">
  <diagram id="R5ujSCpUXuppH5iM_6et" name="Page-1">
    <mxGraphModel dx="1038" dy="580" grid="1" gridSize="10" guides="1" tooltips="1" connect="1" arrows="1" fold="1" page="1" pageScale="1" pageWidth="827" pageHeight="1169" math="0" shadow="0">
      <root>
        <mxCell id="0" />
        <mxCell id="1" parent="0" />
        <mxCell id="9xm6q-rRxBA1AEX6Td_r-19" value="" style="rounded=0;whiteSpace=wrap;html=1;dashed=1;fillColor=none;strokeWidth=2;strokeColor=#00994D;" parent="1" vertex="1">
          <mxGeometry x="211" y="191" width="169" height="270" as="geometry" />
        </mxCell>
        <mxCell id="9xm6q-rRxBA1AEX6Td_r-1" value="" style="rounded=0;whiteSpace=wrap;html=1;dashed=1;fillColor=none;strokeWidth=2;strokeColor=#009900;" parent="1" vertex="1">
          <mxGeometry x="206" y="70" width="564" height="70" as="geometry" />
        </mxCell>
        <mxCell id="9xm6q-rRxBA1AEX6Td_r-4" value="&lt;font color=&quot;#ffffff&quot; style=&quot;font-size: 15px&quot;&gt;Segment[0]&lt;/font&gt;" style="rounded=0;whiteSpace=wrap;html=1;strokeColor=none;strokeWidth=2;fillColor=#006633;" parent="1" vertex="1">
          <mxGeometry x="225" y="90" width="85" height="30" as="geometry" />
        </mxCell>
        <mxCell id="9xm6q-rRxBA1AEX6Td_r-6" value="&lt;font color=&quot;#ffffff&quot; style=&quot;font-size: 15px&quot;&gt;Segment[1]&lt;/font&gt;" style="rounded=0;whiteSpace=wrap;html=1;strokeColor=none;strokeWidth=2;fillColor=#006633;" parent="1" vertex="1">
          <mxGeometry x="330" y="90" width="85" height="30" as="geometry" />
        </mxCell>
        <mxCell id="9xm6q-rRxBA1AEX6Td_r-8" value="&lt;font color=&quot;#ffffff&quot; style=&quot;font-size: 15px&quot;&gt;Segment[2]&lt;/font&gt;" style="rounded=0;whiteSpace=wrap;html=1;strokeColor=none;strokeWidth=2;fillColor=#006633;" parent="1" vertex="1">
          <mxGeometry x="440" y="90" width="85" height="30" as="geometry" />
        </mxCell>
        <mxCell id="9xm6q-rRxBA1AEX6Td_r-9" value="&lt;font color=&quot;#ffffff&quot; style=&quot;font-size: 15px&quot;&gt;Segment[3]&lt;/font&gt;" style="rounded=0;whiteSpace=wrap;html=1;strokeColor=none;strokeWidth=2;fillColor=#006633;" parent="1" vertex="1">
          <mxGeometry x="560" y="90" width="85" height="30" as="geometry" />
        </mxCell>
        <mxCell id="9xm6q-rRxBA1AEX6Td_r-12" value="" style="rounded=0;whiteSpace=wrap;html=1;dashed=1;fillColor=none;strokeWidth=2;strokeColor=#009900;" parent="1" vertex="1">
          <mxGeometry x="211" y="191" width="559" height="70" as="geometry" />
        </mxCell>
        <mxCell id="9xm6q-rRxBA1AEX6Td_r-13" value="" style="endArrow=classic;html=1;" parent="1" source="9xm6q-rRxBA1AEX6Td_r-4" edge="1">
          <mxGeometry width="50" height="50" relative="1" as="geometry">
            <mxPoint x="450" y="300" as="sourcePoint" />
            <mxPoint x="267" y="180" as="targetPoint" />
          </mxGeometry>
        </mxCell>
        <mxCell id="9xm6q-rRxBA1AEX6Td_r-14" value="&lt;pre style=&quot;font-family: &amp;#34;jetbrains mono&amp;#34; ; font-size: 9.8pt&quot;&gt;&lt;font color=&quot;#ffffff&quot;&gt;HashEntry&amp;lt;K,V&amp;gt;[0]&lt;/font&gt;&lt;/pre&gt;" style="rounded=0;whiteSpace=wrap;html=1;strokeColor=none;strokeWidth=2;fillColor=#006633;" parent="1" vertex="1">
          <mxGeometry x="225" y="211" width="144" height="30" as="geometry" />
        </mxCell>
        <mxCell id="9xm6q-rRxBA1AEX6Td_r-15" value="&lt;pre style=&quot;font-family: &amp;#34;jetbrains mono&amp;#34; ; font-size: 9.8pt&quot;&gt;&lt;font color=&quot;#ffffff&quot;&gt;HashEntry&amp;lt;K,V&amp;gt;[1]&lt;/font&gt;&lt;/pre&gt;" style="rounded=0;whiteSpace=wrap;html=1;strokeColor=none;strokeWidth=2;fillColor=#006633;" parent="1" vertex="1">
          <mxGeometry x="389" y="211" width="144" height="30" as="geometry" />
        </mxCell>
        <mxCell id="9xm6q-rRxBA1AEX6Td_r-16" value="&lt;pre style=&quot;font-family: &amp;#34;jetbrains mono&amp;#34; ; font-size: 9.8pt&quot;&gt;&lt;font color=&quot;#ffffff&quot;&gt;HashEntry&amp;lt;K,V&amp;gt;[2]&lt;/font&gt;&lt;/pre&gt;" style="rounded=0;whiteSpace=wrap;html=1;strokeColor=none;strokeWidth=2;fillColor=#006633;" parent="1" vertex="1">
          <mxGeometry x="543" y="211" width="144" height="30" as="geometry" />
        </mxCell>
        <mxCell id="9xm6q-rRxBA1AEX6Td_r-17" value="&lt;pre style=&quot;font-family: &amp;#34;jetbrains mono&amp;#34; ; font-size: 9.8pt&quot;&gt;&lt;font color=&quot;#ffffff&quot;&gt;....&lt;/font&gt;&lt;/pre&gt;" style="rounded=0;whiteSpace=wrap;html=1;strokeColor=none;strokeWidth=2;fillColor=#006633;" parent="1" vertex="1">
          <mxGeometry x="700" y="211" width="60" height="30" as="geometry" />
        </mxCell>
        <mxCell id="9xm6q-rRxBA1AEX6Td_r-18" value="&lt;pre style=&quot;font-family: &amp;#34;jetbrains mono&amp;#34; ; font-size: 9.8pt&quot;&gt;&lt;font color=&quot;#ffffff&quot;&gt;....&lt;/font&gt;&lt;/pre&gt;" style="rounded=0;whiteSpace=wrap;html=1;strokeColor=none;strokeWidth=2;fillColor=#006633;" parent="1" vertex="1">
          <mxGeometry x="670" y="90" width="80" height="30" as="geometry" />
        </mxCell>
        <mxCell id="9xm6q-rRxBA1AEX6Td_r-20" value="&lt;pre style=&quot;font-family: &amp;#34;jetbrains mono&amp;#34; ; font-size: 9.8pt&quot;&gt;&lt;font color=&quot;#ffffff&quot;&gt;HashEntry&amp;lt;K,V&amp;gt;&lt;/font&gt;&lt;/pre&gt;" style="rounded=0;whiteSpace=wrap;html=1;strokeColor=none;strokeWidth=2;fillColor=#006633;" parent="1" vertex="1">
          <mxGeometry x="225" y="281" width="144" height="30" as="geometry" />
        </mxCell>
        <mxCell id="9xm6q-rRxBA1AEX6Td_r-21" value="&lt;pre style=&quot;font-family: &amp;#34;jetbrains mono&amp;#34; ; font-size: 9.8pt&quot;&gt;&lt;font color=&quot;#ffffff&quot;&gt;HashEntry&amp;lt;K,V&amp;gt;&lt;/font&gt;&lt;/pre&gt;" style="rounded=0;whiteSpace=wrap;html=1;strokeColor=none;strokeWidth=2;fillColor=#006633;" parent="1" vertex="1">
          <mxGeometry x="225" y="341" width="144" height="30" as="geometry" />
        </mxCell>
        <mxCell id="9xm6q-rRxBA1AEX6Td_r-22" value="&lt;pre style=&quot;font-family: &amp;#34;jetbrains mono&amp;#34; ; font-size: 9.8pt&quot;&gt;&lt;font color=&quot;#ffffff&quot;&gt;HashEntry&amp;lt;K,V&amp;gt;&lt;/font&gt;&lt;/pre&gt;" style="rounded=0;whiteSpace=wrap;html=1;strokeColor=none;strokeWidth=2;fillColor=#006633;" parent="1" vertex="1">
          <mxGeometry x="225" y="401" width="144" height="30" as="geometry" />
        </mxCell>
        <mxCell id="9xm6q-rRxBA1AEX6Td_r-26" value="" style="shape=curlyBracket;whiteSpace=wrap;html=1;rounded=1;strokeColor=#000000;strokeWidth=2;fillColor=#003366;" parent="1" vertex="1">
          <mxGeometry x="178" y="190" width="20" height="270" as="geometry" />
        </mxCell>
        <mxCell id="9xm6q-rRxBA1AEX6Td_r-27" value="&lt;span style=&quot;font-weight: normal&quot;&gt;&lt;font style=&quot;font-size: 16px&quot;&gt;冲突链表&lt;/font&gt;&lt;/span&gt;" style="text;strokeColor=none;fillColor=none;html=1;fontSize=24;fontStyle=1;verticalAlign=middle;align=center;" parent="1" vertex="1">
          <mxGeometry x="80" y="301" width="100" height="40" as="geometry" />
        </mxCell>
        <mxCell id="9xm6q-rRxBA1AEX6Td_r-28" value="&lt;span style=&quot;font-size: 16px ; font-weight: 400&quot;&gt;不可扩容&lt;br&gt;Segmeng&amp;nbsp;段&lt;/span&gt;" style="text;strokeColor=none;fillColor=none;html=1;fontSize=24;fontStyle=1;verticalAlign=middle;align=center;" parent="1" vertex="1">
          <mxGeometry x="80" y="85" width="100" height="40" as="geometry" />
        </mxCell>
        <mxCell id="9xm6q-rRxBA1AEX6Td_r-30" value="" style="shape=curlyBracket;whiteSpace=wrap;html=1;rounded=1;strokeColor=#000000;strokeWidth=2;fillColor=#000000;" parent="1" vertex="1">
          <mxGeometry x="178" y="70" width="20" height="70" as="geometry" />
        </mxCell>
        <mxCell id="9xm6q-rRxBA1AEX6Td_r-35" value="" style="rounded=0;comic=1;strokeWidth=2;endArrow=blockThin;html=1;fontFamily=Comic Sans MS;fontStyle=1;entryX=0.5;entryY=0;entryDx=0;entryDy=0;" parent="1" source="9xm6q-rRxBA1AEX6Td_r-20" target="9xm6q-rRxBA1AEX6Td_r-21" edge="1">
          <mxGeometry width="50" height="50" relative="1" as="geometry">
            <mxPoint x="360" y="311" as="sourcePoint" />
            <mxPoint x="290" y="331" as="targetPoint" />
          </mxGeometry>
        </mxCell>
        <mxCell id="9xm6q-rRxBA1AEX6Td_r-41" value="&amp;nbsp; &amp;nbsp; &amp;nbsp; &amp;nbsp; &amp;nbsp;next" style="text;html=1;align=center;verticalAlign=middle;resizable=0;points=[];" parent="9xm6q-rRxBA1AEX6Td_r-35" vertex="1" connectable="0">
          <mxGeometry x="-0.5371" y="1" relative="1" as="geometry">
            <mxPoint y="2" as="offset" />
          </mxGeometry>
        </mxCell>
        <mxCell id="9xm6q-rRxBA1AEX6Td_r-36" value="" style="rounded=0;comic=1;strokeWidth=2;endArrow=blockThin;html=1;fontFamily=Comic Sans MS;fontStyle=1;entryX=0.5;entryY=0;entryDx=0;entryDy=0;exitX=0.5;exitY=1;exitDx=0;exitDy=0;" parent="1" source="9xm6q-rRxBA1AEX6Td_r-21" target="9xm6q-rRxBA1AEX6Td_r-22" edge="1">
          <mxGeometry width="50" height="50" relative="1" as="geometry">
            <mxPoint x="360" y="311" as="sourcePoint" />
            <mxPoint x="290" y="331" as="targetPoint" />
          </mxGeometry>
        </mxCell>
        <mxCell id="9xm6q-rRxBA1AEX6Td_r-42" value="&amp;nbsp; &amp;nbsp; &amp;nbsp; &amp;nbsp; &amp;nbsp; &amp;nbsp;next" style="text;html=1;align=center;verticalAlign=middle;resizable=0;points=[];" parent="9xm6q-rRxBA1AEX6Td_r-36" vertex="1" connectable="0">
          <mxGeometry x="-0.3848" y="-2" relative="1" as="geometry">
            <mxPoint as="offset" />
          </mxGeometry>
        </mxCell>
        <mxCell id="9xm6q-rRxBA1AEX6Td_r-37" value="" style="rounded=0;comic=1;strokeWidth=2;endArrow=blockThin;html=1;fontFamily=Comic Sans MS;fontStyle=1;exitX=0.5;exitY=1;exitDx=0;exitDy=0;" parent="1" source="9xm6q-rRxBA1AEX6Td_r-14" target="9xm6q-rRxBA1AEX6Td_r-20" edge="1">
          <mxGeometry width="50" height="50" relative="1" as="geometry">
            <mxPoint x="360" y="311" as="sourcePoint" />
            <mxPoint x="410" y="261" as="targetPoint" />
          </mxGeometry>
        </mxCell>
        <mxCell id="9xm6q-rRxBA1AEX6Td_r-40" value="next" style="text;html=1;align=center;verticalAlign=middle;resizable=0;points=[];" parent="9xm6q-rRxBA1AEX6Td_r-37" vertex="1" connectable="0">
          <mxGeometry x="-0.5529" relative="1" as="geometry">
            <mxPoint x="13" as="offset" />
          </mxGeometry>
        </mxCell>
        <mxCell id="9xm6q-rRxBA1AEX6Td_r-44" value="" style="shape=curlyBracket;whiteSpace=wrap;html=1;rounded=1;strokeColor=#000000;strokeWidth=2;fillColor=#000000;direction=south;" parent="1" vertex="1">
          <mxGeometry x="210" y="167" width="560" height="20" as="geometry" />
        </mxCell>
        <mxCell id="9xm6q-rRxBA1AEX6Td_r-45" value="&lt;span style=&quot;font-weight: 400&quot;&gt;&lt;font style=&quot;font-size: 14px&quot;&gt;可扩容，HashEntity&amp;nbsp;数组&lt;/font&gt;&lt;/span&gt;" style="text;strokeColor=none;fillColor=none;html=1;fontSize=24;fontStyle=1;verticalAlign=middle;align=center;" parent="1" vertex="1">
          <mxGeometry x="389" y="130" width="201" height="50" as="geometry" />
        </mxCell>
        <mxCell id="9xm6q-rRxBA1AEX6Td_r-50" value="ConcurrentHashMap&amp;nbsp;存储结构" style="text;strokeColor=none;fillColor=none;html=1;fontSize=24;fontStyle=1;verticalAlign=middle;align=center;" parent="1" vertex="1">
          <mxGeometry x="533" y="380" width="100" height="40" as="geometry" />
        </mxCell>
        <UserObject label="&lt;font style=&quot;font-size: 16px&quot;&gt;https://www.wdbyte.com&lt;/font&gt;" placeholders="1" name="Variable" id="9xm6q-rRxBA1AEX6Td_r-53">
          <mxCell style="text;html=1;strokeColor=none;fillColor=none;align=center;verticalAlign=middle;whiteSpace=wrap;overflow=hidden;" parent="1" vertex="1">
            <mxGeometry x="580" y="431" width="190" height="20" as="geometry" />
          </mxCell>
        </UserObject>
      </root>
    </mxGraphModel>
  </diagram>
</mxfile>
